# xmcd
#
# Track frame offsets:
#	150
#	18515
#	38120
#	52270
#	67015
#	89000
#	102842
#	116255
#	130392
#	152855
#
# Disc length: 2355 seconds
#
# Revision: 0
# Processed by: cddbd v1.5.2PL0 Copyright (c) Steve Scherf et al.
# Submitted via: EasyCDDAExtractor 16.0.4.1
#
DISCID=8b09310a
DTITLE=Opća Opasnost - Treba Mi Nešto Jače Od Sna
DYEAR=1994
DGENRE=Pop
TTITLE0=Treba mi nesto jace od sna
TTITLE1=Ti
TTITLE2=Cudan ples
TTITLE3=Opca Opasnost
TTITLE4=Jednom kad noc
TTITLE5=Put another dollar
TTITLE6=Budi se grad
TTITLE7=Koja luda noc
TTITLE8=Sutra je kasno
TTITLE9=Nebeski znak
EXTD=
EXTT0=
EXTT1=
EXTT2=
EXTT3=
EXTT4=
EXTT5=
EXTT6=
EXTT7=
EXTT8=
EXTT9=
PLAYORDER=
